<svg xmlns:svg="http://www.w3.org/2000/svg" xmlns="http://www.w3.org/2000/svg" version="1.1" viewBox="0 0 3178.1756 592.66412" height="167.26299mm" width="896.95178mm">
  <g transform="translate(42.497796,-325.41771)">
    <path d="m394.71875 398.9208-419.5 501 419.5 0 419.27037 0.4445z" fill="#f8f8f8"/>
  </g>
  <g transform="translate(1.410349e-7,-3.9482198e-6)">
    <g transform="matrix(-1,0,0,1,831.64526,-325.41771)">
      <path d="m117.21978 349.63022 0 137.19478 13.5116-11.95258zM117.21978 349.63022l23.90516 120.5651-10.39356 4.6771M117.21978 349.63022l23.90516 120.5651-10.39356 4.6771" fill="#dadada"/>
      <path d="m117.21978 349.63022 23.90516 120.5651-10.39356 4.6771z" fill="#dadada"/>
      <path d="M213.87973 594.39816 117.21101 486.81634 130.73138 474.87242 214.8084 564.3109Z" fill="#d9d9d8"/>
      <path d="M213.87973 594.39816 315.98752 620.37337 343.27934 601.93348 214.8084 564.3109Z" fill="#dbdbdb"/>
      <path d="m337.5629 662.21604-21.57538-41.84267 27.29182-18.43989 22.49527 49.16351z" fill="#e4e4e4"/>
      <path d="m199.58861 343.13425 13.51161 108.3527-11.95259-12.47226z" fill="#c5c5c5"/>
      <path d="m199.58861 343.13425-7.79516 97.43948 9.35418-1.55904z" fill="#bababa"/>
      <path d="m142.16428 471.23467 49.62917-30.66094 9.35418-1.55904z" fill="#a6a6a6"/>
      <path d="m140.51012 472.02912 18.15572 21.63935 54.4229-42.19447-11.95259-12.45357z" fill="#d0d0d0"/>
      <path d="m228.95037 561.13882-87.82543-90.9435-10.39356 4.6771 84.07702 89.43848z" fill="#c1c1c1"/>
      <path d="m309.27758 468.99178-53.54483 84.76186 15.23365-2.84518z" fill="#c3c3c3"/>
      <path d="m309.27758 468.99178-29.29199 92.11121-9.01919-10.19453z" fill="#bababa"/>
      <path d="m266.65138 573.53621 13.33421-12.43322-9.01919-10.19453-22.98693 18.19269z" fill="#b3b3b3"/>
      <path d="m227.33239 561.22606 28.44055-7.48965 15.19346-2.82795-22.98693 18.19269z" fill="#acacac"/>
      <path d="m228.92447 561.13163 123.96012 32.7382-9.60525 8.06365L214.8084 564.3109Z" fill="#dadada"/>
      <path d="m385.3732 642.98798-32.61853-49.24807-9.47533 8.19357 22.49527 49.16351z" fill="#bfbfbf"/>
    </g>
  </g>
  <g transform="translate(1.410349e-7,-3.9482198e-6)">
    <g transform="matrix(-1,0,0,1,831.46753,-325.41771)">
      <path d="m321.5 690.86221 73-30.5-25.5-12-19.51247 7.13631z" fill="#bcbcbc"/>
      <path d="M394.5 638.70474 368.99937 648.36168 394.5 660.36612Z" fill="#bcbcbc"/>
      <path d="m394.5 660.36221-73 30.5 43.5 42.5 29.5-3.5z" fill="#e2e2e2"/>
      <path d="m326 744.36221-4.5-53.5 43.5 42.5z" fill="#d3d3d3"/>
      <path d="m334.5 811.86221-8.5-67.5 38.75-11.25-1.25 38.75z" fill="#c5c5c5"/>
      <path d="m298.375 654.11221 23.125 36.75 27.92395-35.28335z" fill="#d5d5d5"/>
      <path d="m282.125 667.48721 16.25-13.375 23.125 36.75z" fill="#cbcbc9"/>
      <path d="m282.125 667.48721-17.375 51.75 56.75-28.375z" fill="#cfcfcf"/>
      <path d="m217 625.11221 4.5 38.75 43.625 55.5 17-51.875z" fill="#e9e9e9"/>
      <path d="m298.375 654.11221-81.375-29 65.125 42.375z" fill="#cfcfcf"/>
      <path d="M349.42395 655.57886 302.625 636.36221 217 625.11221l81.375 29 51.04895 1.46665z" fill="#cbcbcb"/>
      <path d="m321.5 690.86221 3.625 41.875-59.875-13.875z" fill="#b9b9b9"/>
      <path d="M326 744.36221 312.18764 787.55072 334.5 811.86221Z" fill="#b3b3b3"/>
      <path d="m357.97281 817.42598 5.48007-45.60839-28.95288 40.04462 4.20415 37.38357z" fill="#b1b1b1"/>
      <path d="m357.97281 817.42598 36.52719 31.46625 0 24.39518-55.79685-24.04454z" fill="#b8b8b8"/>
      <path d="M357.97281 817.42598 394.5 807.34971l0 41.54252z" fill="#ffd5d5"/>
      <path d="m357.97281 817.42598 5.40219-45.43877 31.125-0.75 0 36.1125-36.52719 10.07627zM364.75 733.36221l29.75-3.5 0 41.375-30.875 0.75M364.75 733.36221l29.75-3.5 0 41.375-30.875 0.75" fill="#e2e2e2"/>
      <path d="m364.75 733.36221 29.75-3.5 0 41.375-30.875 0.75z" fill="#e2e2e2"/>
    </g>
  </g>
  <g transform="translate(42.497796,-325.41771)">
    <path d="m117.21978 349.63022 0 137.19478 13.5116-11.95258zM117.21978 349.63022l23.90516 120.5651-10.39356 4.6771M117.21978 349.63022l23.90516 120.5651-10.39356 4.6771" fill="#dadada"/>
    <path d="m117.21978 349.63022 23.90516 120.5651-10.39356 4.6771z" fill="#dadada"/>
    <path d="M213.87973 594.39816 117.21101 486.81634 130.73138 474.87242 214.8084 564.3109Z" fill="#d9d9d8"/>
    <path d="M213.87973 594.39816 315.98752 620.37337 343.27934 601.93348 214.8084 564.3109Z" fill="#dbdbdb"/>
    <path d="m337.5629 662.21604-21.57538-41.84267 27.29182-18.43989 22.49527 49.16351z" fill="#e4e4e4"/>
    <path d="m199.58861 343.13425 13.51161 108.3527-11.95259-12.47226z" fill="#c5c5c5"/>
    <path d="m199.58861 343.13425-7.79516 97.43948 9.35418-1.55904z" fill="#bababa"/>
    <path d="m142.16428 471.23467 49.62917-30.66094 9.35418-1.55904z" fill="#a6a6a6"/>
    <path d="m140.51012 472.02912 18.15572 21.63935 54.4229-42.19447-11.95259-12.45357z" fill="#d0d0d0"/>
    <path d="m228.95037 561.13882-87.82543-90.9435-10.39356 4.6771 84.07702 89.43848z" fill="#c1c1c1"/>
    <path d="m309.27758 468.99178-53.54483 84.76186 15.23365-2.84518z" fill="#c3c3c3"/>
    <path d="m309.27758 468.99178-29.29199 92.11121-9.01919-10.19453z" fill="#bababa"/>
    <path d="m266.65138 573.53621 13.33421-12.43322-9.01919-10.19453-22.98693 18.19269z" fill="#b3b3b3"/>
    <path d="m227.33239 561.22606 28.44055-7.48965 15.19346-2.82795-22.98693 18.19269z" fill="#acacac"/>
    <path d="m228.92447 561.13163 123.96012 32.7382-9.60525 8.06365L214.8084 564.3109Z" fill="#dadada"/>
    <path d="m385.3732 642.98798-32.61853-49.24807-9.47533 8.19357 22.49527 49.16351z" fill="#bfbfbf"/>
  </g>
  <g transform="translate(42.497796,-325.41771)">
    <path d="m321.5 690.86221 73-30.5-25.5-12-19.51247 7.13631z" fill="#bcbcbc"/>
    <path d="M394.5 638.70474 368.99937 648.36168 394.5 660.36612Z" fill="#bcbcbc"/>
    <path d="m394.5 660.36221-73 30.5 43.5 42.5 29.5-3.5z" fill="#e2e2e2"/>
    <path d="m326 744.36221-4.5-53.5 43.5 42.5z" fill="#d3d3d3"/>
    <path d="m334.5 811.86221-8.5-67.5 38.75-11.25-1.25 38.75z" fill="#c5c5c5"/>
    <path d="m298.375 654.11221 23.125 36.75 27.92395-35.28335z" fill="#d5d5d5"/>
    <path d="m282.125 667.48721 16.25-13.375 23.125 36.75z" fill="#cbcbc9"/>
    <path d="m282.125 667.48721-17.375 51.75 56.75-28.375z" fill="#cfcfcf"/>
    <path d="m217 625.11221 4.5 38.75 43.625 55.5 17-51.875z" fill="#e9e9e9"/>
    <path d="m298.375 654.11221-81.375-29 65.125 42.375z" fill="#cfcfcf"/>
    <path d="M349.42395 655.57886 302.625 636.36221 217 625.11221l81.375 29 51.04895 1.46665z" fill="#cbcbcb"/>
    <path d="m321.5 690.86221 3.625 41.875-59.875-13.875z" fill="#b9b9b9"/>
    <path d="M326 744.36221 312.18764 787.55072 334.5 811.86221Z" fill="#b3b3b3"/>
    <path d="m357.97281 817.42598 5.48007-45.60839-28.95288 40.04462 4.20415 37.38357z" fill="#b1b1b1"/>
    <path d="m357.97281 817.42598 36.52719 31.46625 0 24.39518-55.79685-24.04454z" fill="#b8b8b8"/>
    <path d="M357.97281 817.42598 394.5 807.34971l0 41.54252z" fill="#ffd5d5"/>
    <path d="m357.97281 817.42598 5.40219-45.43877 31.125-0.75 0 36.1125-36.52719 10.07627zM364.75 733.36221l29.75-3.5 0 41.375-30.875 0.75M364.75 733.36221l29.75-3.5 0 41.375-30.875 0.75" fill="#e2e2e2"/>
    <path d="m364.75 733.36221 29.75-3.5 0 41.375-30.875 0.75z" fill="#e2e2e2"/>
  </g>
  <path d="m1330.4534 283.61484 83.9885-76.27068-20.4298 72.63874z" fill="#e6e6e6"/>
  <path d="m1330.4534 283.61484-1.8161 70.36893 2.27 93.9764 44.0372-73.09271z" fill="#d9d9d9"/>
  <path d="m1418.5278 342.18003-24.0615-62.19713-20.4297 94.88456zM1418.5278 342.18003l32.6874-33.59559-56.2949-27.69338M1418.5278 342.18003l32.6874-33.59559-56.2949-27.69338" fill="#e6e6e6"/>
  <path d="m1418.5278 342.18003 32.6874-33.59559-56.2949-27.69338z" fill="#e6e6e6"/>
  <path d="m1394.9203 280.4371 85.8044-19.06784-65.8289-53.5709z" fill="#f3f3f3"/>
  <path d="m1395.3791 281.31667 85.4685-19.72357-29.1742 47.66519z" fill="#e0e0e0"/>
  <path d="m1451.8788 308.84756 100.4667-2.05457-71.0869-45.40537" fill="#d9d9d9"/>
  <path d="m1414.4863 208.38086 138.4754 0.20455-72.1141 52.80151z" fill="#f3f3f3"/>
  <path d="m1553.1672 208.17538 48.8979 52.39055-120.8065 0.82169z" fill="#f6f6f6"/>
  <path d="m1601.4489 260.56593-50.1308 45.8161-69.6485-44.58345z" fill="#d0d0d0"/>
  <path d="m1395.2652 458.20211-20.4841-83.24399-44.1643 73.80096z" fill="#d9d9d9"/>
  <path d="m1395.2652 458.20211 22.8086-56.80349-43.0021-27.02161 20.1935 83.8251z" fill="#e6e6e6"/>
  <path d="m1418.5278 342.18003-43.1656 32.19698 43.5833 27.60272z" fill="#f3f3f3"/>
  <path d="m1454.1026 442.07631-35.4477-40.38714-23.3897 56.51294z" fill="#f7f7f7"/>
  <path d="m1330.6612 448.76117 84.6468 94.50846-20.0428-85.06752z" fill="#d3d3d3"/>
  <path d="m1395.2652 458.20211 58.8374-16.1258 29.0051 53.52813z" fill="#f3f3f3"/>
  <path d="m1395.2652 458.20211 19.8373 85.06752 67.7997-47.87044z" fill="#cdcdcd"/>
  <path d="m1454.1026 442.07631 99.4756-0.50603-70.8815 53.82891z" fill="#f3f3f3"/>
  <path d="m1483.1077 495.19371 118.5464-0.20455-49.3088 48.89784z" fill="#d9d9d9"/>
  <path d="m1483.3132 495.39919 70.0595-53.62343 48.4869 53.21247z" fill="#ededed"/>
  <path d="m1483.3132 495.19371-68.2107 48.07592 137.6538 1.0274z" fill="#d3d3d3"/>
  <path d="m1602.2705 494.98823 48.2817-56.91065-0.2046 104.78132z" fill="#e6e6e6"/>
  <path d="m1602.0651 494.78275 1.2326-120.39575 47.6652 63.89606z" fill="#e3e3e3"/>
  <path d="m1602.0651 494.78275-48.2814-52.39055 49.925-67.38876-0.8217 120.39575z" fill="#e6e6e6"/>
  <path d="m1554.3999 442.3922-1.6436-135.39396 50.9524 68.41616z" fill="#d9d9d9"/>
  <path d="m1650.5522 438.28306-0.411-131.90103-46.227 68.82689z" fill="#e6e6e6"/>
  <path d="m1603.7087 375.82513-51.5689-69.4431 49.5143-45.8161z" fill="#cfcfcf"/>
  <path d="m1603.5032 376.64705 46.0216-70.67598-47.6652-46.22706z" fill="#f3f3f3"/>
  <path d="m1649.5248 306.99824 1.8491-98.82309-49.3088 52.39078z" fill="#f6f6f6"/>
  <path d="m1651.9903 207.55894-99.0286 1.02717 49.5143 51.97982zM2073.9227 94.516305l46.8433 53.828675 48.8981-53.828675M2073.9227 94.516305l46.8433 53.828675 48.8981-53.828675" fill="#f3f3f3"/>
  <path d="m2073.9227 94.516305 46.8433 53.828675 48.8981-53.828675z" fill="#f3f3f3"/>
  <path d="m2073.9227 94.516305-0.2045 117.313775 46.6377-63.89606z" fill="#e6e6e6"/>
  <path d="m2170.0748 209.98122-49.3088-61.63624 48.8981-53.828675z" fill="#f3f3f3"/>
  <path d="m2170.0748 209.98122-49.3088-61.63624 1.8493 115.25944z" fill="#e6e6e6"/>
  <path d="m2073.7172 211.83031 47.0488-63.48533 1.8493 115.25944z" fill="#ededed"/>
  <path d="m2170.0748 209.98122 70.8814 52.59579-118.3409 1.02741z" fill="#f3f3f3"/>
  <path d="m2170.0748 312.09153 70.8814-49.51452-118.3409 1.02741z" fill="#d6d6d6"/>
  <path d="m2170.0748 312.09153-47.8707 63.48487 0.4112-111.97198z" fill="#e6e6e6"/>
  <path d="m2073.3063 313.1187 48.8978 62.4577 0.4112-111.97198z" fill="#e2e2e2"/>
  <path d="m2073.3063 313.1187 0-101.4941 49.309 51.97982zM2073.3063 313.1187l48.8978 62.4577-48.6921 64.71798" fill="#e6e6e6"/>
  <path d="m2073.3063 313.1187 48.8978 62.4577-48.6921 64.71798z" fill="#e6e6e6"/>
  <path d="m2123.437 497.20503-1.2329-121.62863-48.6921 64.71798z" fill="#dcdcdc"/>
  <path d="m2123.437 497.20503-49.309 48.2814-0.616-105.19205z" fill="#d8d8d8"/>
  <path d="m2123.437 497.20503-49.309 48.2814 94.5089-0.20455z" fill="#d1d1d1"/>
  <path d="m2123.437 497.20503 45.6104-52.59626-0.4105 100.67311z" fill="#e6e6e6"/>
  <path d="m2123.437 497.20503 45.6104-52.59626-47.0485-68.82596z" fill="#e8e8e8"/>
  <path d="m2170.5069 311.83096-1.4595 132.77781-47.0485-68.82596z" fill="#eaeaea"/>
  <path d="m2170.0748 312.09153 70.8814-49.51452 30.8591 49.69536zM2330.4611 283.32659l-89.5049-20.74958 30.8591 49.69536M2330.4611 283.32659l-89.5049-20.74958 30.8591 49.69536" fill="#dcdcdc"/>
  <path d="m2330.4611 283.32659-89.5049-20.74958 30.8591 49.69536z" fill="#dcdcdc"/>
  <path d="m2330.4611 283.32659-26.745 55.5211-31.9008-26.57532z" fill="#dcdcdc"/>
  <path d="m2330.4611 283.32659-89.5049-20.74958 67.3237-51.8536z" fill="#f3f3f3"/>
  <path d="m2170.2201 209.96146 70.7361 52.61555 67.3237-51.8536z" fill="#f9f9f9"/>
  <path d="m2330.4611 283.32659 68.9929 2.93065-91.1741-75.53383z" fill="#f7f7f7"/>
  <path d="m2330.4611 283.32659 68.9929 2.93065-49.0562 85.95244zM2398.8771 438.44389l0.5769-152.18665-49.0562 85.95244M2398.8771 438.44389l0.5769-152.18665-49.0562 85.95244" fill="#e6e6e6"/>
  <path d="m2398.8771 438.44389 0.5769-152.18665-49.0562 85.95244z" fill="#e6e6e6"/>
  <path d="m2330.4611 283.32659-26.3375 55.52668 46.2742 33.35641z" fill="#dcdcdc"/>
  <path d="m2303.9576 443.99117 0.1651-105.1379 46.2742 33.35641z" fill="#e6e6e6"/>
  <path d="m2303.9576 443.99117 47.2138 54.49927-0.7745-126.28076z" fill="#dcdcdc"/>
  <path d="m2399.699 438.85485-48.5276 59.63559-0.7745-126.28076zM2399.699 438.85485l-48.5276 59.63559 47.5071 46.91649M2399.699 438.85485l-48.5276 59.63559 47.5071 46.91649" fill="#e6e6e6"/>
  <path d="m2399.699 438.85485-48.5276 59.63559 47.5071 46.91649z" fill="#e6e6e6"/>
  <path d="m2304.5741 544.66335 46.5973-46.17291 47.5071 46.91649z" fill="#d1d1d1"/>
  <path d="m2304.5741 544.66335 46.5973-46.17291-47.2068-55.19382z" fill="#d6d6d6"/>
  <path d="m2546.7405 210.71719 71.4979 46.02158 68.2104-46.84327z" fill="#f3f3f3"/>
  <path d="m2546.7405 210.71719 71.4979 46.02158-89.9886 25.88729z" fill="#e6e6e6"/>
  <path d="m2546.7405 210.71719-83.8249 73.96321 65.3342-2.05434z" fill="#e2e2e2"/>
  <path d="m2502.7735 375.49091-39.8579-90.81051 65.3342-2.05434z" fill="#dcdcdc"/>
  <path d="m2502.7735 375.49091 50.1307-34.92726-24.6544-57.93759z" fill="#f3f3f3"/>
  <path d="m2581.6675 307.69119-28.7633 32.87246-24.6544-57.93759z" fill="#e6e6e6"/>
  <path d="m2581.6675 307.69119 35.749-50.54169-89.1667 25.47656z" fill="#e3e3e3"/>
  <path d="m2581.6675 307.69119 35.749-50.54169 29.5854 49.30904zM2706.9941 283.85871l-89.5776-26.70921 29.5854 49.30904M2706.9941 283.85871l-89.5776-26.70921 29.5854 49.30904" fill="#dcdcdc"/>
  <path d="m2706.9941 283.85871-89.5776-26.70921 29.5854 49.30904z" fill="#dcdcdc"/>
  <path d="m2706.9941 283.85871-89.5776-26.70921 68.6216-47.254z" fill="#f3f3f3"/>
  <path d="m2706.9941 283.85871 62.8689 2.46507-83.8249-76.42828z" fill="#f8f8f8"/>
  <path d="m2706.9941 283.85871 62.8689 2.46507-41.0905 86.7016z" fill="#f3f3f3"/>
  <path d="m2770.2737 418.22527-0.4107-131.90149-41.0905 86.7016zM2706.9941 283.85871l-24.6542 55.47206 46.4326 33.69461M2706.9941 283.85871l-24.6542 55.47206 46.4326 33.69461" fill="#e6e6e6"/>
  <path d="m2706.9941 283.85871-24.6542 55.47206 46.4326 33.69461z" fill="#e6e6e6"/>
  <path d="m2706.9941 283.85871-24.6542 55.47206-34.927-33.28319z" fill="#dadada"/>
  <path d="m2770.2737 418.22527-93.6865-0.41143 52.1853-44.78846z" fill="#e6e6e6"/>
  <path d="m2616.5945 376.31283 59.9927 41.50101 52.1853-44.78846zM2616.5945 376.31283l59.9927 41.50101-119.9846 0.4112M2616.5945 376.31283l59.9927 41.50101-119.9846 0.4112" fill="#dcdcdc"/>
  <path d="m2616.5945 376.31283 59.9927 41.50101-119.9846 0.4112z" fill="#dcdcdc"/>
  <path d="m2616.5945 376.31283-114.6427-2.05503 54.6508 43.96724z" fill="#d4d4d4"/>
  <path d="m2616.5945 376.31283-114.6427-2.05503 50.9526-33.69415z" fill="#f3f3f3"/>
  <path d="m2616.5945 376.31283 66.1561-35.74941-129.8462 0.00023z" fill="#e6e6e6"/>
  <path d="m2616.5945 376.31283 66.1561-35.74941 46.0219 33.69461z" fill="#ebebeb"/>
  <path d="m2526.5225 460.86433-24.5707-86.60653 54.6508 43.96724zM2526.5225 460.86433l56.2036-15.71112-26.1235-26.92817M2526.5225 460.86433l56.2036-15.71112-26.1235-26.92817" fill="#f3f3f3"/>
  <path d="m2526.5225 460.86433 56.2036-15.71112-26.1235-26.92817z" fill="#f3f3f3"/>
  <path d="m2526.5225 460.86433-24.5707-86.60653-40.6512 78.25272z" fill="#e2e2e2"/>
  <path d="m2462.891 284.49747 39.0608 89.76033-40.6512 78.25272zM2526.5225 460.86433l56.2036-15.71112 27.9197 51.81222M2526.5225 460.86433l56.2036-15.71112 27.9197 51.81222" fill="#e6e6e6"/>
  <path d="m2526.5225 460.86433 56.2036-15.71112 27.9197 51.81222z" fill="#e6e6e6"/>
  <path d="m2526.5225 460.86433 18.722 83.94923 65.4013-47.84813z" fill="#f3f3f3"/>
  <path d="m2526.5225 460.86433 18.722 83.94923-83.6534-92.30304zM2653.2045 544.83471l-107.96-0.0232 65.4013-47.84813M2653.2045 544.83471l-107.96-0.0232 65.4013-47.84813" fill="#e6e6e6"/>
  <path d="m2653.2045 544.83471-107.96-0.0232 65.4013-47.84813z" fill="#e6e6e6"/>
  <path d="m2653.2045 544.83471 48.3585-47.96481-90.9172 0.093z" fill="#e6e6e6"/>
  <path d="m2653.2045 544.83471 48.3585-47.96481 54.0698 48.61565z" fill="#e6e6e6"/>
  <path d="m2755.7704 445.75547-54.2074 51.11443 54.0698 48.61565z" fill="#f3f3f3"/>
  <path d="m2755.7704 445.75547-54.2074 51.11443-42.9756-51.33525z" fill="#f8f8f8"/>
  <path d="m2610.7834 496.31203 90.7796 0.55787-42.9756-51.33525zM2610.7834 496.31203l-28.3479-51.45147 76.1519 0.67409M2610.7834 496.31203l-28.3479-51.45147 76.1519 0.67409" fill="#f3f3f3"/>
  <path d="m2610.7834 496.31203-28.3479-51.45147 76.1519 0.67409z" fill="#f3f3f3"/>
  <path d="m2839.5955 208.47132 48.4871 53.41795-48.4871 51.36338zM2888.9043 376.53226l-0.8217-114.64299-48.4871 51.36338M2888.9043 376.53226l-0.8217-114.64299-48.4871 51.36338" fill="#e6e6e6"/>
  <path d="m2888.9043 376.53226-0.8217-114.64299-48.4871 51.36338z" fill="#e6e6e6"/>
  <path d="m2888.9043 376.53226-0.8217-114.64299 48.4869 49.3088z" fill="#f3f3f3"/>
  <path d="m2999.0274 262.30023-110.9448-0.41096 48.4869 49.3088zM2999.0274 262.30023l38.6252 47.66519-101.0831 1.23265M2999.0274 262.30023l38.6252 47.66519-101.0831 1.23265" fill="#dcdcdc"/>
  <path d="m2999.0274 262.30023 38.6252 47.66519-101.0831 1.23265z" fill="#dcdcdc"/>
  <path d="m2999.0274 262.30023 38.6252 47.66519 55.8833-26.29801z" fill="#d8d8d8"/>
  <path d="m3075.4561 344.07076-37.8035-34.10534 55.8833-26.29801z" fill="#dcdcdc"/>
  <path d="m3075.4561 344.07076 83.003-57.93782-64.9232-2.46553z" fill="#e6e6e6"/>
  <path d="m3077.0998 209.7042 81.3593 76.42874-64.9232-2.46553z" fill="#f7f7f7"/>
  <path d="m3077.0998 209.7042-77.2507 52.1853 93.6868 21.77791z" fill="#f6f6f6"/>
  <path d="m3077.0998 209.7042-77.2507 52.1853-59.9924-53.41795z" fill="#ededed"/>
  <path d="m2888.4936 262.30023 111.3555-0.41073-59.9924-53.41795z" fill="#f3f3f3"/>
  <path d="m2888.9043 376.53226 47.2544 67.79972 0.4108-133.13391zM2888.9043 376.53226l47.2544 67.79972-48.0761 52.59603M2888.9043 376.53226l47.2544 67.79972-48.0761 52.59603" fill="#e6e6e6"/>
  <path d="m2888.9043 376.53226 47.2544 67.79972-48.0761 52.59603z" fill="#e6e6e6"/>
  <path d="m2937.3912 545.41489-1.2325-101.08291-48.0761 52.59603z" fill="#e6e6e6"/>
  <path d="m2937.3912 545.41489-97.3845 0.82193 48.0759-49.30881z" fill="#d6d6d6"/>
  <path d="m2840.0062 443.92102 0.0005 102.3158 48.0759-49.30881z" fill="#d9d9d9"/>
  <path d="m2840.0062 443.92102 48.8983-66.56684-0.8219 119.57383z" fill="#dcdcdc"/>
  <path d="m2840.0062 443.92102 48.8983-66.56684-49.7197-64.5125zM1998.4875 262.68696l-57.1162 72.3196-6.9854-60.40336M1998.4875 262.68696l-57.1162 72.3196-6.9854-60.40336" fill="#e6e6e6"/>
  <path d="m1998.4875 262.68696-57.1162 72.3196-6.9854-60.40336z" fill="#e6e6e6"/>
  <path d="m1998.4875 262.68696-76.8397-51.77434 12.7381 63.69058z" fill="#f8f8f8"/>
  <path d="m1853.8483 249.9488 67.7995-39.03618 12.7381 63.69058z" fill="#f7f7f7"/>
  <path d="m1853.8483 249.9488 67.7995-39.03618-136.8319 0.41096zM1853.8483 249.9488l-88.756 34.92703 19.7236-73.55225M1853.8483 249.9488l-88.756 34.92703 19.7236-73.55225" fill="#f3f3f3"/>
  <path d="m1853.8483 249.9488-88.756 34.92703 19.7236-73.55225z" fill="#f3f3f3"/>
  <path d="m1727.289 286.10848 37.8033-1.23265 19.7236-73.55225zM1727.289 286.10848l37.8033-1.23265-25.887 91.22147M1727.289 286.10848l37.8033-1.23265-25.887 91.22147" fill="#e6e6e6"/>
  <path d="m1727.289 286.10848 37.8033-1.23265-25.887 91.22147z" fill="#e6e6e6"/>
  <path d="m1781.9396 369.11166-16.8473-84.23583-25.887 91.22147zM1781.9396 369.11166l22.5999 50.95242-65.3342-43.96678M1781.9396 369.11166l22.5999 50.95242-65.3342-43.96678" fill="#dcdcdc"/>
  <path d="m1781.9396 369.11166 22.5999 50.95242-65.3342-43.96678z" fill="#dcdcdc"/>
  <path d="m1781.9396 369.11166 22.5999 50.95242 55.0615-42.32317z" fill="#e6e6e6"/>
  <path d="m1898.2262 421.29673-93.6867-1.23265 55.0615-42.32317zM1898.2262 421.29673l40.6798-31.63981-79.305-11.91601M1898.2262 421.29673l40.6798-31.63981-79.305-11.91601" fill="#dcdcdc"/>
  <path d="m1898.2262 421.29673 40.6798-31.63981-79.305-11.91601z" fill="#dcdcdc"/>
  <path d="m1898.2262 421.29673 40.6798-31.63981-38.6252 67.389zM1954.5205 472.24915l-15.6145-82.59223-38.6252 67.389M1954.5205 472.24915l-15.6145-82.59223-38.6252 67.389" fill="#e6e6e6"/>
  <path d="m1954.5205 472.24915-15.6145-82.59223-38.6252 67.389z" fill="#e6e6e6"/>
  <path d="m1954.5205 472.24915-87.1121 32.05077 32.8724-47.254z" fill="#e6e6e6"/>
  <path d="m1832.8921 459.10002 34.5163 45.1999 32.8724-47.254zM1832.8921 459.10002l34.5163 45.1999-80.9487-21.36695M1832.8921 459.10002l34.5163 45.1999-80.9487-21.36695" fill="#f3f3f3"/>
  <path d="m1832.8921 459.10002 34.5163 45.1999-80.9487-21.36695z" fill="#f3f3f3"/>
  <path d="m1832.8921 459.10002-55.8833-37.80329 9.4509 61.63624z" fill="#f3f3f3"/>
  <path d="m1721.1253 495.67067 55.8835-74.37394 9.4509 61.63624z" fill="#e6e6e6"/>
  <path d="m1721.1253 495.67067 78.0724 50.13072-12.738-62.86842zM1867.4081 504.29968l-68.2104 41.50171-12.738-62.86842M1867.4081 504.29968l-68.2104 41.50171-12.738-62.86842" fill="#dcdcdc"/>
  <path d="m1867.4081 504.29968-68.2104 41.50171-12.738-62.86842z" fill="#dcdcdc"/>
  <path d="m1867.4081 504.29968-68.2104 41.50171 133.1339 0.00023zM1867.4081 504.29968l86.2904-32.05053-21.3669 73.55247M1867.4081 504.29968l86.2904-32.05053-21.3669 73.55247" fill="#e6e6e6"/>
  <path d="m1867.4081 504.29968 86.2904-32.05053-21.3669 73.55247z" fill="#e6e6e6"/>
  <path d="m1994.7893 470.6053-41.0908 1.64385-21.3669 73.55247z" fill="#e6e6e6"/>
  <path d="m1994.7893 470.6053-41.0908 1.64385 26.7092-92.86486z" fill="#e6e6e6"/>
  <path d="m1939.3168 389.65669 14.3817 82.59246 26.7092-92.86486zM1939.3168 389.65669l-23.8325-52.59579 64.9234 42.32339M1939.3168 389.65669l-23.8325-52.59579 64.9234 42.32339" fill="#f3f3f3"/>
  <path d="m1939.3168 389.65669-23.8325-52.59579 64.9234 42.32339z" fill="#f3f3f3"/>
  <path d="m1939.3168 389.65669-23.8325-52.59579-55.4723 40.67978z" fill="#f7f7f7"/>
  <path d="m1822.2082 335.41705 93.2761 1.64385-55.4723 40.67978zM1822.2082 335.41705l-39.8576 33.69461 77.6614 8.62902M1822.2082 335.41705l-39.8576 33.69461 77.6614 8.62902" fill="#f3f3f3"/>
  <path d="m1822.2082 335.41705-39.8576 33.69461 77.6614 8.62902z" fill="#f3f3f3"/>
  <path d="m1822.2082 335.41705-39.8576 33.69461 34.5161-69.03237zM1764.6814 285.69729l17.6692 83.41437 34.5161-69.03237M1764.6814 285.69729l17.6692 83.41437 34.5161-69.03237" fill="#e6e6e6"/>
  <path d="m1764.6814 285.69729 17.6692 83.41437 34.5161-69.03237z" fill="#e6e6e6"/>
  <path d="m1764.6814 285.69729 88.7562-36.15945-36.5709 50.54145z" fill="#e0e0e0"/>
  <path d="m1886.7207 298.84641-33.2831-49.30857-36.5709 50.54145zM1886.7207 298.84641l-33.2831-49.30857 80.5376 25.06513M1886.7207 298.84641l-33.2831-49.30857 80.5376 25.06513" fill="#dcdcdc"/>
  <path d="m1886.7207 298.84641-33.2831-49.30857 80.5376 25.06513z" fill="#dcdcdc"/>
  <path d="m1886.7207 298.84641 55.0618 36.98183-7.8073-61.22527z" fill="#dcdcdc"/>
  <path d="m943.59769 102.8059 46.48879 38.35324 62.46932-37.48157zM1096.4296 141.74025l-106.34312-0.58111 62.46932-37.48157M1096.4296 141.74025l-106.34312-0.58111 62.46932-37.48157" fill="#f3f3f3"/>
  <path d="m1096.4296 141.74025-106.34312-0.58111 62.46932-37.48157z" fill="#f3f3f3"/>
  <path d="m1096.4296 141.74025 74.0915-37.19102-117.9653-0.87166z" fill="#f3f3f3"/>
  <path d="m1096.4296 141.74025 74.0915-37.19102 18.0144 69.15207z" fill="#f3f3f3"/>
  <path d="m1250.1332 190.84404-79.6121-86.29481 18.0144 69.15207z" fill="#f3f3f3"/>
  <path d="m1250.1332 190.84404-38.9344 75.25374-22.6633-92.39648z" fill="#f3f3f3"/>
  <path d="m1250.1332 190.84404-38.9344 75.25374 38.3533 56.36766zM1211.1988 382.02921l0-115.93143 38.3533 56.36766M1211.1988 382.02921l0-115.93143 38.3533 56.36766" fill="#e6e6e6"/>
  <path d="m1211.1988 382.02921 0-115.93143 38.3533 56.36766z" fill="#e6e6e6"/>
  <path d="m1211.1988 382.02921 39.2249 75.83484-0.8716-135.39861z" fill="#ebebeb"/>
  <path d="m1211.1988 382.02921 39.2249 75.83484-61.0165 16.27108zM1170.2306 545.3211l80.1931-87.45705-61.0165 16.27108M1170.2306 545.3211l80.1931-87.45705-61.0165 16.27108" fill="#e6e6e6"/>
  <path d="m1170.2306 545.3211 80.1931-87.45705-61.0165 16.27108z" fill="#e6e6e6"/>
  <path d="m1170.2306 545.3211-73.801-40.96825 92.9776-30.21772z" fill="#e6e6e6"/>
  <path d="m1170.2306 545.3211-73.801-40.96825-42.421 40.67769z" fill="#d9d9d9"/>
  <path d="m992.70147 505.51507 103.72813-1.16222-42.421 40.67769z" fill="#d0d0d0"/>
  <path d="m992.70147 505.51507-49.68489 39.22492 110.99202 0.29055z" fill="#d9d9d9"/>
  <path d="m992.70147 505.51507-49.68489 39.22492 0.29055-87.7476z" fill="#d0d0d0"/>
  <path d="m992.70147 505.51507-0.87166-92.39648-48.52268 43.8738z" fill="#d9d9d9"/>
  <path d="m944.1788 363.43369 47.65101 49.6849-48.52268 43.8738z" fill="#d0d0d0"/>
  <path d="m944.1788 363.43369 47.65101 49.6849 0.87166-87.7476z" fill="#d9d9d9"/>
  <path d="m944.1788 363.43369 0.87166-76.41595 47.65101 38.35325z" fill="#e6e6e6"/>
  <path d="m992.41092 235.58951-47.36046 51.42823 47.65101 38.35325z" fill="#dfdfdf"/>
  <path d="m992.41092 235.58951-47.36046 51.42823-1.16222-95.01148z" fill="#dadada"/>
  <path d="m992.41092 235.58951-1.74333-94.72092-46.77935 51.13767z" fill="#e1e1e1"/>
  <path d="m944.46935 103.38701 46.19824 37.48158-46.77935 51.13767z" fill="#e6e6e6"/>
  <path d="m992.41092 235.58951-1.74333-94.72092 44.16431 47.94157z" fill="#ececec"/>
  <path d="m1096.7202 141.74025-106.05261-0.87166 44.16431 47.94157z" fill="#d8d8d8"/>
  <path d="m1096.7202 141.74025 26.1499 47.36046-88.0382-0.29055z" fill="#dedede"/>
  <path d="m1096.7202 141.74025 26.1499 47.36046 65.6654-15.10886zM1167.0345 237.33284l-44.1644-48.23213 65.6654-15.10886M1167.0345 237.33284l-44.1644-48.23213 65.6654-15.10886" fill="#d8d8d8"/>
  <path d="m1167.0345 237.33284-44.1644-48.23213 65.6654-15.10886z" fill="#d8d8d8"/>
  <path d="m1167.0345 237.33284 44.1643 29.34605-22.6633-92.68704z" fill="#e6e6e6"/>
  <path d="m1167.0345 237.33284 44.1643 29.34605-44.7455 58.11099z" fill="#d8d8d8"/>
  <path d="m1211.1988 382.02921 0-115.35032-44.7455 58.11099z" fill="#e2e2e2"/>
  <path d="m1211.1988 382.02921-45.036 30.21771 0.2905-87.45704z" fill="#ddd"/>
  <path d="m1211.1988 382.02921-45.036 30.21771 23.5349 61.01655z" fill="#e6e6e6"/>
  <path d="m1126.3568 459.31683 39.806-47.06991 23.5349 61.01655z" fill="#ececec"/>
  <path d="m1126.3568 459.31683-30.5083 45.32657 93.8492-31.37993z" fill="#e6e6e6"/>
  <path d="m1126.3568 459.31683-30.5083 45.32657-60.1449-44.16435z" fill="#f3f3f3"/>
  <path d="m992.41092 506.09618 103.43758-1.45278-60.1449-44.16435z" fill="#fdfdfd"/>
  <path d="m992.41092 506.09618-0.87167-93.26815 44.16435 47.65102zM1035.9942 363.72425l-44.45495 49.10378 44.16435 47.65102M1035.9942 363.72425l-44.45495 49.10378 44.16435 47.65102" fill="#f3f3f3"/>
  <path d="m1035.9942 363.72425-44.45495 49.10378 44.16435 47.65102z" fill="#f3f3f3"/>
  <path d="m1035.9942 363.72425-44.45495 49.10378 0.58111-88.90981z" fill="#f3f3f3"/>
  <path d="m1035.9942 363.72425-1.4528-77.28762-42.42104 37.48159zM991.53925 234.13673l43.00215 52.2999-42.42104 37.48159M991.53925 234.13673l43.00215 52.2999-42.42104 37.48159" fill="#e6e6e6"/>
  <path d="m991.53925 234.13673 43.00215 52.2999-42.42104 37.48159z" fill="#e6e6e6"/>
  <path d="m991.53925 234.13673 43.00215 52.2999 0.2905-97.62647z" fill="#e6e6e6"/>
  <path d="m1330.0278 283.68003 64.4385-3.69713-20.4297 94.88456z" fill="#e6e6e6"/>
</svg>
